<svg id="Capa_1" data-name="Capa 1" xmlns="http://www.w3.org/2000/svg" viewBox="0 0 309.31 310.28"><defs><style>.cls-1{fill:#aad69d;}</style></defs><title>favicon</title><path class="cls-1" d="M385.19,554.25c15.76-2,29.57-9.08,43.15-16.91-20,28.92-46,49.13-81.22,55.91-10.63-.14-21.29.6-31.8-1.9s-19.9-6.57-27.65-14.12c-16.22-15.81-10.9-41.05,10.37-49.1,13.91-5.27,26.84-3.11,38.7,5.62,5.63,4.13,10.89,8.77,16.56,12.84C362.83,553.44,373.25,557.17,385.19,554.25Z" transform="translate(-147.74 -294.04)"/><path class="cls-1" d="M199,552.25c-3.77-7.61-7.18-15.3-8.05-23.91-1.3-12.92.49-24.79,12.39-32.4,12.5-8,24.88-6.48,36.72,1.92.67.48,1.38.91,2.08,1.36,10.65,10,14.26,22.48,13.12,36.73-.29,3.64,0,7.33-.09,11-.16,15.83,6.51,28.25,18.81,37.91,8.87,7,18.83,11.9,29.32,15.89,1.6.6,3.63.62,4.82,2.89-3.59,1-7.07.66-10.46.53-22.24-.83-43.61-5-63.26-16.18A91.23,91.23,0,0,1,199,552.25Z" transform="translate(-147.74 -294.04)"/><path class="cls-1" d="M397.09,538.22l-1,.07a44.83,44.83,0,0,0-4.49,0c-22.89,2.27-38.39-22.54-26.84-45.13,5-9.78,12.78-16.59,23.41-19.68,6.86-2,13.84-3.6,20.82-5.18,15.24-3.45,25-13.14,31.26-27,4.93-10.89,7.46-22.38,8.7-34.21.12-1.11-.15-2.35,1.44-4,8.74,30.38,9.73,59.88-2.25,89.15-6.06,14.12-16.29,25-27.65,34.86a69.48,69.48,0,0,1-7.42,5C408.45,536,403,537.66,397.09,538.22Z" transform="translate(-147.74 -294.04)"/><path class="cls-1" d="M387.05,356.32c-.92-15.4-8.35-27.76-18.34-38.84-3.92-4.35-8.23-8.34-11.83-13.12a135.75,135.75,0,0,1,56.22,36.91c11.85,14.46,20.28,30.53,22.44,49.33,1.58,13.74,1,27.16-6.11,39.75-12.17,21.47-39.85,18.09-51,.83-7.48-11.59-8.46-24-3.63-36.8,2.11-5.59,4.9-10.93,7.42-16.37C385.42,371.13,387.59,364,387.05,356.32Z" transform="translate(-147.74 -294.04)"/><path class="cls-1" d="M182.29,548.37c-1.85.25-2.47-1.14-3.24-2.11-16.13-20.14-27.67-42.36-30.52-68.39-2.22-20.28,2.62-39.21,13-56.44,4.41-7.32,11.12-13.19,18.74-17.67,20.87-12.27,42.73,5.28,43.88,24.29.91,14.92-4.79,26.57-16.31,35.65-3.93,3.09-7.91,6.12-12,9C180,483.88,175,499.63,176.56,518.14a130.14,130.14,0,0,0,5.24,26.42C182.17,545.79,182.8,547,182.29,548.37Z" transform="translate(-147.74 -294.04)"/><path class="cls-1" d="M257.11,311.33c-8.79-2.07-17.71-.63-26.62-1.07,23.6-13,49-17.41,75.65-15.95,16.07,2.37,30.87,7.88,44.14,17.46,11.73,8.47,20.25,19.11,23.89,33.34,5.26,20.55-14.49,36.25-31.36,34.75-18.95-1.68-30.49-12.44-36.87-29.76-3.23-8.74-6.7-17.32-13.56-24.17-8.21-8.21-18.36-11.7-29.41-13.47C261,312.15,259.06,311.71,257.11,311.33Z" transform="translate(-147.74 -294.04)"/><path class="cls-1" d="M150.18,417.23c-1.25,1.14-2.81,2.56-2.35-.77a60,60,0,0,1,2-8.73c6.14-20.81,15.07-40.18,30.38-56,21.37-22,46.84-32.71,77.88-27.33,1.49.75,2.92,1.63,4.46,2.23,18.69,7.17,24.44,32.91,7.62,48.8-9.35,8.85-20.72,12.3-33.59,10.4a93.07,93.07,0,0,1-16-3.78c-18.61-6.2-35.05-2.33-49.68,10.4A98.64,98.64,0,0,0,150.18,417.23Z" transform="translate(-147.74 -294.04)"/></svg>