<svg id="Capa_1" data-name="Capa 1" xmlns="http://www.w3.org/2000/svg" viewBox="0 0 595.28 370.72"><defs><style>.cls-1{fill:#121933;}.cls-2{fill:#aad69d;}</style></defs><title>regist-img</title><rect class="cls-1" width="595.28" height="370.72"/><path class="cls-2" d="M327.5,336.92c6.43-.84,12.07-3.71,17.61-6.9-8.18,11.8-18.77,20.05-33.14,22.81-4.34-.05-8.69.25-13-.77a23.39,23.39,0,0,1-11.29-5.77c-6.62-6.45-4.44-16.75,4.23-20a15.8,15.8,0,0,1,15.8,2.29c2.3,1.69,4.44,3.58,6.76,5.24C318.38,336.59,322.63,338.11,327.5,336.92Z" transform="translate(4.17 -165.97)"/><path class="cls-2" d="M251.53,336.1a28.54,28.54,0,0,1-3.29-9.76c-.53-5.27.2-10.12,5.06-13.22,5.1-3.26,10.15-2.65,15,.78.28.2.57.37.85.56,4.35,4.08,5.82,9.17,5.36,15-.12,1.49,0,3,0,4.48-.06,6.46,2.66,11.53,7.68,15.47a44.76,44.76,0,0,0,12,6.49c.66.25,1.48.25,2,1.18a13.75,13.75,0,0,1-4.27.22c-9.08-.34-17.8-2.06-25.82-6.61A37.21,37.21,0,0,1,251.53,336.1Z" transform="translate(4.17 -165.97)"/><path class="cls-2" d="M332.36,330.38l-.4,0c-.61,0-1.23,0-1.84,0-9.34.92-15.67-9.2-10.95-18.42a15.21,15.21,0,0,1,9.55-8c2.8-.82,5.65-1.47,8.5-2.12,6.22-1.4,10.2-5.36,12.76-11a44.92,44.92,0,0,0,3.55-14,2.09,2.09,0,0,1,.59-1.65c3.56,12.4,4,24.44-.92,36.39-2.48,5.76-6.65,10.18-11.29,14.23a30.2,30.2,0,0,1-3,2A11.61,11.61,0,0,1,332.36,330.38Z" transform="translate(4.17 -165.97)"/><path class="cls-2" d="M328.26,256.14c-.37-6.29-3.41-11.33-7.48-15.85-1.6-1.78-3.36-3.41-4.83-5.36A55.34,55.34,0,0,1,338.89,250c4.84,5.9,8.28,12.46,9.16,20.13.65,5.61.42,11.08-2.49,16.22-5,8.76-16.27,7.39-20.82.34a16,16,0,0,1-1.48-15c.86-2.28,2-4.46,3-6.68A17.8,17.8,0,0,0,328.26,256.14Z" transform="translate(4.17 -165.97)"/><path class="cls-2" d="M244.7,334.52c-.76.1-1-.47-1.33-.86-6.58-8.22-11.29-17.29-12.45-27.92a36.14,36.14,0,0,1,5.31-23,21.46,21.46,0,0,1,7.65-7.21c8.51-5,17.43,2.16,17.9,9.91A16.27,16.27,0,0,1,255.13,300c-1.6,1.26-3.23,2.5-4.89,3.67-6.46,4.57-8.52,11-7.88,18.55A52.25,52.25,0,0,0,244.5,333,2.34,2.34,0,0,1,244.7,334.52Z" transform="translate(4.17 -165.97)"/><path class="cls-2" d="M275.23,237.78c-3.59-.84-7.22-.26-10.86-.44,9.63-5.31,20-7.1,30.87-6.51a40.21,40.21,0,0,1,18,7.13c4.79,3.45,8.27,7.8,9.76,13.6,2.14,8.39-5.92,14.8-12.8,14.19-7.74-.69-12.44-5.08-15-12.15-1.32-3.57-2.74-7.07-5.53-9.86-3.36-3.35-7.5-4.78-12-5.5C276.82,238.11,276,237.93,275.23,237.78Z" transform="translate(4.17 -165.97)"/><path class="cls-2" d="M231.59,281c-.51.46-1.14,1-1-.32a25.87,25.87,0,0,1,.83-3.56c2.51-8.49,6.15-16.4,12.4-22.83,8.72-9,19.12-13.35,31.79-11.16a18,18,0,0,0,1.81.91c7.63,2.93,10,13.43,3.12,19.92a15.75,15.75,0,0,1-13.72,4.24,37.35,37.35,0,0,1-6.53-1.54c-7.6-2.53-14.31-1-20.28,4.24A40.23,40.23,0,0,0,231.59,281Z" transform="translate(4.17 -165.97)"/><path class="cls-2" d="M222.11,410.82q0,10.13-10.19,10.12a15.17,15.17,0,0,1-6.26-1.2v-3.81a11.59,11.59,0,0,0,5.72,1.73q6.56,0,6.56-6.45v-2h-.07a7.23,7.23,0,0,1-11.63,1.07,9.91,9.91,0,0,1-2.06-6.58,11.65,11.65,0,0,1,2.21-7.46,7.35,7.35,0,0,1,6.07-2.76,5.86,5.86,0,0,1,5.41,3h.07V393.9h4.17ZM218,403.87v-2.39a4.69,4.69,0,0,0-1.28-3.32,4.22,4.22,0,0,0-3.2-1.37,4.4,4.4,0,0,0-3.71,1.75,7.86,7.86,0,0,0-1.34,4.9,6.82,6.82,0,0,0,1.28,4.33,4.12,4.12,0,0,0,3.41,1.63,4.44,4.44,0,0,0,3.5-1.55A5.86,5.86,0,0,0,218,403.87Z" transform="translate(4.17 -165.97)"/><path class="cls-2" d="M238.2,397.87a3.45,3.45,0,0,0-2.18-.59,3.71,3.71,0,0,0-3.09,1.67,7.48,7.48,0,0,0-1.23,4.54v8.8h-4.17V393.9h4.17v3.79h.07a6.43,6.43,0,0,1,1.87-3,4.27,4.27,0,0,1,2.83-1.08,3.51,3.51,0,0,1,1.73.34Z" transform="translate(4.17 -165.97)"/><path class="cls-2" d="M256.71,404.23H244.18a5.26,5.26,0,0,0,1.57,3.93,5.85,5.85,0,0,0,4.12,1.38,9,9,0,0,0,5.4-1.76v3.36a12.36,12.36,0,0,1-6.64,1.58,8.26,8.26,0,0,1-6.37-2.5c-1.54-1.68-2.3-4-2.3-7.05a9.77,9.77,0,0,1,2.54-7,8.31,8.31,0,0,1,6.31-2.7,7.28,7.28,0,0,1,5.84,2.42,10.11,10.11,0,0,1,2.06,6.74Zm-4-3a5.36,5.36,0,0,0-1.06-3.49,3.55,3.55,0,0,0-2.87-1.25,4.06,4.06,0,0,0-3,1.31,6,6,0,0,0-1.53,3.43Z" transform="translate(4.17 -165.97)"/><path class="cls-2" d="M276.25,404.23H263.71a5.3,5.3,0,0,0,1.58,3.93,5.85,5.85,0,0,0,4.12,1.38,9,9,0,0,0,5.4-1.76v3.36a12.36,12.36,0,0,1-6.64,1.58,8.26,8.26,0,0,1-6.37-2.5,10,10,0,0,1-2.31-7.05,9.77,9.77,0,0,1,2.55-7,8.3,8.3,0,0,1,6.31-2.7,7.25,7.25,0,0,1,5.83,2.42,10.06,10.06,0,0,1,2.07,6.74Zm-4-3a5.42,5.42,0,0,0-1.06-3.49,3.56,3.56,0,0,0-2.88-1.25,4.06,4.06,0,0,0-3,1.31,6.06,6.06,0,0,0-1.54,3.43Z" transform="translate(4.17 -165.97)"/><path class="cls-2" d="M296.6,412.29h-4.17V401.93q0-5.16-3.65-5.16a4,4,0,0,0-3.14,1.43,5.32,5.32,0,0,0-1.24,3.6v10.49h-4.18V393.9h4.18V397h.07a6.57,6.57,0,0,1,6-3.48,5.56,5.56,0,0,1,4.58,1.95,8.76,8.76,0,0,1,1.58,5.63Z" transform="translate(4.17 -165.97)"/><path class="cls-2" d="M329.17,412.29H325v-10a8.2,8.2,0,0,0-.82-4.19,3,3,0,0,0-2.76-1.29,3.32,3.32,0,0,0-2.77,1.64,6.63,6.63,0,0,0-1.14,3.91v10h-4.19V401.93q0-5.15-3.62-5.14a3.29,3.29,0,0,0-2.78,1.55,6.83,6.83,0,0,0-1.08,4v10h-4.17V393.9h4.17v2.91h.07a6.36,6.36,0,0,1,5.8-3.34,5.46,5.46,0,0,1,3.33,1,5.26,5.26,0,0,1,1.95,2.76,6.55,6.55,0,0,1,6.1-3.81q6.07,0,6.07,7.49Z" transform="translate(4.17 -165.97)"/><path class="cls-2" d="M336.36,390a2.5,2.5,0,0,1-1.76-.67,2.18,2.18,0,0,1-.72-1.68,2.26,2.26,0,0,1,.72-1.71,2.46,2.46,0,0,1,1.76-.68,2.52,2.52,0,0,1,1.79.68,2.24,2.24,0,0,1,.74,1.71,2.21,2.21,0,0,1-.74,1.66A2.52,2.52,0,0,1,336.36,390Zm2.06,22.25h-4.16V393.9h4.16Z" transform="translate(4.17 -165.97)"/><path class="cls-2" d="M360.24,412.29h-4.17V401.93q0-5.16-3.64-5.16a4,4,0,0,0-3.14,1.43,5.27,5.27,0,0,0-1.24,3.6v10.49h-4.19V393.9h4.19V397h.07a6.55,6.55,0,0,1,6-3.48,5.55,5.55,0,0,1,4.58,1.95,8.76,8.76,0,0,1,1.58,5.63Z" transform="translate(4.17 -165.97)"/><path class="cls-2" d="M382,412.29h-4.17v-3.13h-.07a7.18,7.18,0,0,1-11.62,1.09,10.25,10.25,0,0,1-2-6.72,11.16,11.16,0,0,1,2.25-7.31,7.35,7.35,0,0,1,6-2.75,5.73,5.73,0,0,1,5.4,3h.07V385.06H382Zm-4.11-8.41v-2.4a4.68,4.68,0,0,0-1.28-3.32,4.25,4.25,0,0,0-3.25-1.37,4.38,4.38,0,0,0-3.67,1.74,7.79,7.79,0,0,0-1.34,4.83,6.93,6.93,0,0,0,1.29,4.43,4.18,4.18,0,0,0,3.45,1.63,4.35,4.35,0,0,0,3.47-1.57A5.92,5.92,0,0,0,377.93,403.88Z" transform="translate(4.17 -165.97)"/></svg>